<svg width="1920" height="60" viewBox="0 0 1920 60" fill="none" xmlns="http://www.w3.org/2000/svg">
<mask id="path-1-inside-1_73_654" fill="white">
<path d="M0 0H1920V60H0V0Z"/>
</mask>
<path d="M0 0H1920V60H0V0Z" fill="white"/>
<path d="M1920 59H0V61H1920V59Z" fill="#E2E8F0" mask="url(#path-1-inside-1_73_654)"/>
<g clip-path="url(#clip0_73_654)">
<path d="M371 38.6755C374.876 31.1502 381.427 18.9616 385.487 21.5276C390.562 24.7352 378.105 34.6044 384.103 38.6755C390.101 42.7466 395.637 17.8266 401.082 21.5276C406.526 25.2286 395.822 34.9745 400.067 38.6755C403.462 41.6363 409.294 31.2394 414 23.2617" stroke="#6500C3" stroke-width="15.8161" stroke-linecap="round"/>
<path d="M394.841 30.0113C394.841 31.4303 394.492 32.6995 393.944 33.6033C393.393 34.5129 392.675 35.0051 391.942 35.0051C391.208 35.0051 390.49 34.5129 389.939 33.6033C389.391 32.6995 389.042 31.4303 389.042 30.0113C389.042 28.5922 389.391 27.3231 389.939 26.4193C390.49 25.5096 391.208 25.0175 391.942 25.0175C392.675 25.0175 393.393 25.5096 393.944 26.4193C394.492 27.3231 394.841 28.5922 394.841 30.0113Z" fill="white" stroke="#0F172A" stroke-width="0.64436"/>
<path d="M394.841 30.0113C394.841 30.8953 394.619 31.6803 394.276 32.2338C393.93 32.7923 393.495 33.072 393.069 33.072C392.644 33.072 392.208 32.7923 391.862 32.2338C391.52 31.6803 391.297 30.8953 391.297 30.0113C391.297 29.1273 391.52 28.3424 391.862 27.7888C392.208 27.2303 392.644 26.9506 393.069 26.9506C393.495 26.9506 393.93 27.2303 394.276 27.7888C394.619 28.3424 394.841 29.1273 394.841 30.0113Z" fill="#0F172A" stroke="#0F172A" stroke-width="0.64436"/>
<path d="M403.218 30.0113C403.218 31.4303 402.869 32.6995 402.321 33.6033C401.77 34.5129 401.052 35.0051 400.318 35.0051C399.585 35.0051 398.867 34.5129 398.316 33.6033C397.768 32.6995 397.419 31.4303 397.419 30.0113C397.419 28.5922 397.768 27.3231 398.316 26.4193C398.867 25.5096 399.585 25.0175 400.318 25.0175C401.052 25.0175 401.77 25.5096 402.321 26.4193C402.869 27.3231 403.218 28.5922 403.218 30.0113Z" fill="white" stroke="#0F172A" stroke-width="0.64436"/>
<path d="M403.218 30.0113C403.218 30.8953 402.996 31.6803 402.653 32.2338C402.307 32.7923 401.872 33.072 401.446 33.072C401.02 33.072 400.585 32.7923 400.239 32.2338C399.896 31.6803 399.674 30.8953 399.674 30.0113C399.674 29.1273 399.896 28.3424 400.239 27.7888C400.585 27.2303 401.02 26.9506 401.446 26.9506C401.872 26.9506 402.307 27.2303 402.653 27.7888C402.996 28.3424 403.218 29.1273 403.218 30.0113Z" fill="#0F172A" stroke="#0F172A" stroke-width="0.64436"/>
<path fill-rule="evenodd" clip-rule="evenodd" d="M500.488 26.3814C502.227 26.3697 503.632 24.9854 503.621 23.2968C503.609 21.5577 502.185 20.1525 500.446 20.1642C498.757 20.1756 497.392 21.5995 497.404 23.3386C497.415 25.0272 498.799 26.3928 500.488 26.3814Z" fill="#6500C3"/>
<path fill-rule="evenodd" clip-rule="evenodd" d="M503.561 34.5707C503.264 33.5648 502.45 32.3682 500.262 32.3829C498.573 32.3943 497.205 33.7784 497.216 35.467C497.227 37.0492 498.432 38.3494 499.989 38.4985L500.014 42.2507L500.491 41.947C502.98 40.3665 504.184 36.6833 503.561 34.5707Z" fill="#6500C3"/>
<path d="M440.33 29.6575C439.643 28.9368 438.787 28.5798 437.763 28.5867C436.398 28.5959 435.408 28.9439 434.794 29.6307C434.18 30.3175 433.876 31.2049 433.884 32.2929C433.89 33.2955 434.173 34.1043 434.732 34.7193C435.291 35.3342 436.168 35.6376 437.362 35.6296C437.938 35.6257 438.492 35.5047 439.024 35.2664C439.556 35.0282 440.001 34.6945 440.361 34.2654L440.33 29.6575ZM430.045 32.4787C430.036 31.1347 430.283 29.8851 430.788 28.7296C431.292 27.5742 432.011 26.6307 432.945 25.8991C433.9 25.146 435.006 24.7118 436.264 24.5967C436.904 24.5498 437.587 24.6838 438.315 24.9989C439.063 25.2926 439.728 25.7255 440.308 26.2976L440.265 19.9617L444.645 19.4202L444.767 37.4678C444.77 38.0012 444.581 38.4611 444.2 38.8477C443.819 39.2556 443.351 39.4614 442.796 39.4651L440.396 39.4813L440.384 37.6253C439.897 38.2259 439.292 38.7207 438.57 39.1095C437.868 39.4983 437.166 39.695 436.462 39.6997C435.203 39.7082 434.081 39.3851 433.095 38.7304C432.131 38.0968 431.378 37.2379 430.838 36.1535C430.318 35.0476 430.054 33.8227 430.045 32.4787ZM454.066 27.9331C453.106 27.9396 452.298 28.3183 451.641 29.0694C451.006 29.8204 450.693 30.8252 450.702 32.0838C450.709 33.2358 450.982 34.13 451.52 34.7664C452.079 35.4026 452.785 35.7179 453.638 35.7121C454.598 35.7057 455.396 35.3377 456.031 34.608C456.666 33.8784 456.979 32.8736 456.971 31.5936C456.963 30.4203 456.679 29.5156 456.12 28.8793C455.583 28.2429 454.898 27.9275 454.066 27.9331ZM446.959 32.365C446.949 30.829 447.228 29.4724 447.796 28.2953C448.386 27.1179 449.19 26.1738 450.209 25.463C451.228 24.7521 452.388 24.2963 453.688 24.0956C454.114 24.0287 454.509 23.994 454.871 23.9916C456.109 23.9833 457.22 24.2531 458.205 24.8012C459.211 25.3491 460.006 26.1651 460.589 27.2492C461.173 28.3333 461.47 29.6647 461.48 31.2433C461.492 32.9713 461.15 34.4669 460.454 35.7303C459.78 36.9722 458.848 37.9172 457.657 38.5652C456.489 39.2344 455.2 39.5737 453.792 39.5832C452.491 39.592 451.326 39.3118 450.298 38.7427C449.271 38.1949 448.455 37.379 447.85 36.2951C447.267 35.211 446.97 33.9009 446.959 32.365ZM474.691 24.0503L474.778 37.042C474.782 37.6394 474.572 38.1528 474.149 38.5823C473.725 39.0332 473.204 39.2607 472.585 39.2648L470.665 39.2777L470.567 24.6861L474.691 24.0503ZM470.05 19.1534C470.044 18.3428 470.349 17.6047 470.963 16.9392C471.577 16.2738 472.279 15.9384 473.068 15.9331C473.666 15.929 474.158 16.1284 474.544 16.5311C474.952 16.9337 475.159 17.455 475.163 18.095C475.168 18.927 474.864 19.6651 474.25 20.3092C473.635 20.9534 472.923 21.2781 472.112 21.2836C471.536 21.2875 471.044 21.0881 470.636 20.6855C470.25 20.2828 470.054 19.7721 470.05 19.1534ZM489.338 38.1282C488.828 38.3663 487.966 38.6281 486.752 38.9136L485.985 39.1107C485.836 39.1544 485.569 39.1775 485.185 39.1801C484.716 39.1833 484.236 39.1225 483.744 38.9978C483.274 38.8729 482.867 38.6837 482.524 38.43C481.023 37.2667 480.243 35.4266 480.183 32.9096L480.157 28.9737L477.79 29.2136L477.768 25.9177L480.134 25.6458L480.102 20.8779L484.098 20.307L484.131 25.1389L489.247 24.4965L489.259 26.3844C489.263 26.8537 489.105 27.2601 488.788 27.6036C488.491 27.947 488.109 28.1415 487.64 28.1874L484.154 28.5628L484.18 32.3707C484.184 32.9894 484.284 33.554 484.479 34.0647C484.674 34.5541 484.943 34.9256 485.287 35.1793C485.394 35.2426 485.543 35.2736 485.735 35.2723C486.076 35.27 486.524 35.203 487.078 35.0713C487.653 34.9181 488.143 34.7761 488.547 34.6454L489.338 38.1282Z" fill="#6500C3"/>
</g>
<defs>
<clipPath id="clip0_73_654">
<rect width="151" height="40" fill="white" transform="translate(360 10)"/>
</clipPath>
</defs>
</svg>
